<?xml version="1.0" encoding="utf-8"?>
<!-- Generator: Adobe Illustrator 14.0.0, SVG Export Plug-In . SVG Version: 6.00 Build 43363)  -->
<!DOCTYPE svg PUBLIC "-//W3C//DTD SVG 1.1//EN" "http://www.w3.org/Graphics/SVG/1.1/DTD/svg11.dtd">
<svg version="1.1" id="Layer_1" xmlns="http://www.w3.org/2000/svg" xmlns:xlink="http://www.w3.org/1999/xlink" x="0px" y="0px"
	 width="90px" height="90px" viewBox="0 0 90 90" style="enable-background:new 0 0 90 90;" xml:space="preserve">
<style type="text/css">
<![CDATA[
	.st0{fill:#E4ECEF;}
	.st1{clip-path:url(#SVGID_2_);fill-rule:evenodd;clip-rule:evenodd;fill:#E90C7B;}
	.st2{font-family:'Slabo27px-Regular';}
	.st3{fill:#FFFFFF;}
	.st4{font-size:16;}
	.st5{fill:none;stroke:#BBBDBF;stroke-width:0.2;}
]]>
</style>
<g>
	<circle class="st3" cx="45" cy="45" r="45"/>
	<circle class="st5" cx="45" cy="45" r="45"/>
</g>
<circle class="st0" cx="45" cy="45" r="40"/>
<g>
	<defs>
		<circle id="SVGID_1_" cx="45" cy="45" r="40"/>
	</defs>
	<clipPath id="SVGID_2_">
		<use xlink:href="#SVGID_1_"  style="overflow:visible;"/>
	</clipPath>
	<path class="st1" d="M65.321,65.532c-0.49-0.58-3.36-0.58-3.851,0c-1.136,0.203-1.628-0.239-2.449-0.351
		c0.49-1.026,3.359,0.327,3.85-0.699c4.695-0.791,7.687-5.146,7.35-9.801c-0.134,3.292-4.739,5.305-7.699,3.5
		c1.75-0.356,2.663-3.393,2.1-4.899c-0.885,4.127-8.895,2.601-9.45-0.7c-0.073-0.393-0.388-0.545-0.7-0.7
		c-0.221-1.276-0.425-2.182,0.351-3.149c0.813,0.236,0.937,1.162,1.75,1.399c0.175-1.925-0.386-4.586,0.35-5.95
		c0.449-0.601,2.093-0.007,2.101-1.05c0.148-1.251,0.932-1.868,0.699-3.5c0.408-0.059,0.381-0.553,0.351-1.05c0-0.7,0-1.4,0-2.1
		c0.045-1.428-1.54-0.682-1.75-1.05c0-0.233,0-0.466,0-0.7c0.582-1.178,0.582-4.772,0-5.95c0-0.117,0-0.233,0-0.351
		c0.259-18-29.737-16.582-28.7,1.05c-0.81,1.291-0.122,4.078-0.35,5.95c-0.955-0.255-0.705,0.696-1.4,0.7
		c-0.105,3.255-0.026,6.326,1.4,8.05c0.609,0.026,1.088-0.078,1.399-0.35c1.314,2.887,3.169,5.231,5.25,7.35
		c0.846,2.327,0.251,6.025-0.35,8.051c-0.214,0.02-0.414,0.052-0.351,0.35c0,0.117,0,0.233,0,0.35c-0.34,0.01-0.271,0.429-0.35,0.7
		c-0.821,0.112-0.783,1.083-1.4,1.4c-0.998,0.868-2.122,1.61-3.149,2.45c-0.481-0.016-0.769,0.164-1.05,0.35
		c-0.214,0.02-0.414,0.053-0.351,0.35c-1.759-0.008-2.558,0.943-4.2,1.051c-3.649,0.783-7.449,1.417-9.1,4.199
		c-0.377,0.907-1.266,1.302-1.4,2.45c-0.213,0.021-0.414,0.053-0.35,0.351c-0.201,0.731-0.867,0.998-0.7,2.1
		c-0.615,1.018-0.797,2.469-1.05,3.85c-0.055,0.412,0.061,0.994-0.35,1.051c0,0.467,0,5.933,0,6.399c21.467,0,42.933,0,64.399,0
		C76.654,77.165,74.174,65.662,65.321,65.532z"/>
</g>
<g>
	<text transform="matrix(1 0 0 1 36.7041 77)" class="st3 st2 st4">80</text>
</g>
</svg>
