<?xml version="1.0" encoding="utf-8"?>
<!-- Generator: Adobe Illustrator 14.0.0, SVG Export Plug-In . SVG Version: 6.00 Build 43363)  -->
<!DOCTYPE svg PUBLIC "-//W3C//DTD SVG 1.1//EN" "http://www.w3.org/Graphics/SVG/1.1/DTD/svg11.dtd">
<svg version="1.1" id="Layer_1" xmlns="http://www.w3.org/2000/svg" xmlns:xlink="http://www.w3.org/1999/xlink" x="0px" y="0px"
	 width="30px" height="30px" viewBox="0 0 30 30" style="enable-background:new 0 0 30 30;" xml:space="preserve">
<style type="text/css">
<![CDATA[
	.st0{opacity:0.21;fill:#D7DCDD;}
	.st1{fill:#FFFFFF;}
]]>
</style>
<g>
	<circle class="st0" cx="15" cy="15" r="15"/>
	<g>
		<path class="st1" d="M19.877,11.52c0.135,0.149,0.16,0.312,0.078,0.491l-6.026,12.913c-0.097,0.186-0.253,0.279-0.469,0.279
			c-0.03,0-0.082-0.008-0.156-0.022c-0.127-0.038-0.222-0.108-0.285-0.212c-0.063-0.104-0.08-0.217-0.05-0.335l2.199-9.019
			l-4.531,1.128c-0.03,0.007-0.075,0.011-0.134,0.011c-0.134,0-0.25-0.041-0.346-0.123c-0.134-0.111-0.182-0.256-0.145-0.435
			l2.243-9.208c0.03-0.104,0.089-0.189,0.179-0.256c0.089-0.067,0.193-0.102,0.312-0.102h3.661c0.141,0,0.26,0.047,0.357,0.141
			c0.096,0.093,0.145,0.202,0.145,0.328c0,0.061-0.019,0.127-0.056,0.201l-1.908,5.168l4.419-1.094
			c0.061-0.016,0.104-0.022,0.135-0.022C19.639,11.353,19.766,11.408,19.877,11.52z"/>
	</g>
</g>
</svg>
