<?xml version="1.0" encoding="utf-8"?>
<!-- Generator: Adobe Illustrator 14.0.0, SVG Export Plug-In . SVG Version: 6.00 Build 43363)  -->
<!DOCTYPE svg PUBLIC "-//W3C//DTD SVG 1.1//EN" "http://www.w3.org/Graphics/SVG/1.1/DTD/svg11.dtd">
<svg version="1.1" id="Layer_1" xmlns="http://www.w3.org/2000/svg" xmlns:xlink="http://www.w3.org/1999/xlink" x="0px" y="0px"
	 width="540px" height="80px" viewBox="0 0 540 80" style="enable-background:new 0 0 540 80;" xml:space="preserve">
<style type="text/css">
<![CDATA[
	.st0{opacity:0.21;fill:#D7DCDD;}
	.st1{font-size:14.4;}
	.st2{fill:#808184;}
	.st3{fill:#B22A25;}
	.st4{fill:#EF7430;}
	.st5{font-family:'Slabo27px-Regular';}
	.st6{fill:#F29441;}
	.st7{fill:#F2B33D;}
	.st8{fill:#2976A6;}
	.st9{fill:#FFFFFF;}
	.st10{fill:#9CC8D9;}
]]>
</style>
<g>
	<rect x="0.421" y="3" class="st3" width="16" height="16"/>
	<g>
		<text transform="matrix(1 0 0 1 23.6206 15.7998)" class="st2 st5 st1">Heavy</text>
	</g>
	<g>
		<text transform="matrix(1 0 0 1 204.6221 16.7998)" class="st2 st5 st1">A Lot of Conflict</text>
	</g>
	<rect x="0.421" y="23" class="st4" width="16" height="16"/>
	<g>
		<text transform="matrix(1 0 0 1 23.6206 35.7998)" class="st2 st5 st1">Moderate</text>
	</g>
	<rect x="0.421" y="43" class="st7" width="16" height="16"/>
	<g>
		<text transform="matrix(1 0 0 1 23.6206 55.7998)" class="st2 st5 st1">Light</text>
	</g>
	<rect x="0.421" y="63" class="st10" width="16" height="16"/>
	<g>
		<text transform="matrix(1 0 0 1 23.6206 75.7998)" class="st2 st5 st1">Abstainer</text>
	</g>
	<g>
		<circle class="st3" cx="184.81" cy="12" r="12"/>
		<g>
			<path class="st9" d="M188.712,9.215c0.107,0.12,0.128,0.25,0.062,0.393l-4.821,10.331c-0.077,0.148-0.202,0.223-0.375,0.223
				c-0.024,0-0.065-0.006-0.125-0.018c-0.102-0.031-0.177-0.087-0.228-0.17c-0.051-0.083-0.064-0.173-0.04-0.268l1.759-7.215
				l-3.625,0.902c-0.023,0.005-0.06,0.008-0.107,0.008c-0.107,0-0.199-0.033-0.277-0.098c-0.107-0.089-0.146-0.205-0.116-0.348
				l1.794-7.367c0.024-0.083,0.072-0.151,0.143-0.205c0.072-0.054,0.155-0.081,0.25-0.081h2.929c0.113,0,0.208,0.037,0.285,0.112
				c0.078,0.074,0.117,0.162,0.117,0.263c0,0.048-0.015,0.102-0.045,0.161l-1.526,4.134l3.535-0.875
				c0.048-0.012,0.083-0.018,0.107-0.018C188.521,9.082,188.623,9.126,188.712,9.215z"/>
		</g>
	</g>
	<g>
		<text transform="matrix(1 0 0 1 204.6221 44.7998)" class="st2 st5 st1">Some Conflict</text>
	</g>
	<g>
		<circle class="st6" cx="184.81" cy="40" r="12"/>
		<g>
			<path class="st9" d="M188.712,37.215c0.107,0.12,0.128,0.25,0.062,0.393l-4.821,10.331c-0.077,0.148-0.202,0.223-0.375,0.223
				c-0.024,0-0.065-0.006-0.125-0.018c-0.102-0.031-0.177-0.087-0.228-0.17c-0.051-0.084-0.064-0.174-0.04-0.268l1.759-7.215
				l-3.625,0.902c-0.023,0.006-0.06,0.008-0.107,0.008c-0.107,0-0.199-0.032-0.277-0.098c-0.107-0.09-0.146-0.205-0.116-0.348
				l1.794-7.367c0.024-0.083,0.072-0.151,0.143-0.205c0.072-0.054,0.155-0.081,0.25-0.081h2.929c0.113,0,0.208,0.037,0.285,0.112
				c0.078,0.074,0.117,0.162,0.117,0.263c0,0.048-0.015,0.102-0.045,0.161l-1.526,4.134l3.535-0.875
				c0.048-0.012,0.083-0.018,0.107-0.018C188.521,37.082,188.623,37.126,188.712,37.215z"/>
		</g>
	</g>
	<g>
		<text transform="matrix(1 0 0 1 204.6221 72.7998)" class="st2 st5 st1">No Conflict</text>
	</g>
	<g>
		<circle class="st0" cx="184.81" cy="68" r="12"/>
		<g>
			<path class="st9" d="M188.712,65.215c0.107,0.12,0.128,0.25,0.062,0.394l-4.821,10.331c-0.077,0.148-0.202,0.223-0.375,0.223
				c-0.024,0-0.065-0.006-0.125-0.018c-0.102-0.031-0.177-0.087-0.228-0.17c-0.051-0.084-0.064-0.174-0.04-0.268l1.759-7.215
				l-3.625,0.902c-0.023,0.006-0.06,0.008-0.107,0.008c-0.107,0-0.199-0.032-0.277-0.098c-0.107-0.09-0.146-0.205-0.116-0.348
				l1.794-7.367c0.024-0.082,0.072-0.15,0.143-0.204c0.072-0.054,0.155-0.081,0.25-0.081h2.929c0.113,0,0.208,0.037,0.285,0.112
				c0.078,0.074,0.117,0.161,0.117,0.263c0,0.049-0.015,0.102-0.045,0.16l-1.526,4.135l3.535-0.875
				c0.048-0.012,0.083-0.018,0.107-0.018C188.521,65.082,188.623,65.127,188.712,65.215z"/>
		</g>
	</g>
	<g>
		<text transform="matrix(1 0 0 1 410.5146 16.7998)" class="st2 st5 st1">A Lot of Common</text>
	</g>
	<g>
		<text transform="matrix(1 0 0 1 410.5146 44.7998)" class="st2 st5 st1">Something in Common</text>
	</g>
	<g>
		<text transform="matrix(1 0 0 1 410.5146 72.7998)" class="st2 st5 st1">Nothing in Common</text>
	</g>
	<g>
		<circle class="st8" cx="390.703" cy="12" r="12"/>
		<g>
			<path class="st9" d="M385.093,11.352V8.529h11.211v2.822H385.093z M385.093,16.208v-2.833h11.211v2.833H385.093z"/>
		</g>
	</g>
	<g>
		<circle class="st10" cx="390.703" cy="40" r="12"/>
		<g>
			<path class="st9" d="M385.093,39.352v-2.822h11.211v2.822H385.093z M385.093,44.207v-2.832h11.211v2.832H385.093z"/>
		</g>
	</g>
	<g>
		<circle class="st0" cx="390.703" cy="68" r="12"/>
		<g>
			<path class="st9" d="M385.093,67.352v-2.822h11.211v2.822H385.093z M385.093,72.207v-2.832h11.211v2.832H385.093z"/>
		</g>
	</g>
	<g>
		<rect x="139.816" y="7" class="st3" width="18.236" height="10"/>
		<g>
			<polygon class="st3" points="141.816,20.66 131.316,12 141.816,3.34 			"/>
			<polygon class="st9" points="141.816,20.66 131.316,12 141.816,3.34 141.816,0.748 140.544,1.797 130.044,10.457 128.174,12 
				130.044,13.543 140.544,22.203 141.816,23.252 			"/>
		</g>
		<g>
			<polygon class="st3" points="155.408,20.66 165.908,12 155.408,3.34 			"/>
			<polygon class="st9" points="155.408,20.66 165.908,12 155.408,3.34 155.408,0.748 156.681,1.797 167.181,10.457 169.051,12 
				167.181,13.543 156.681,22.203 155.408,23.252 			"/>
		</g>
	</g>
	<g>
		<rect x="344.61" y="7.489" class="st8" width="18.236" height="10"/>
		<g>
			<polygon class="st8" points="347.023,21.149 336.523,12.489 347.023,3.829 			"/>
			<polygon class="st9" points="347.023,21.149 336.523,12.489 347.023,3.829 347.023,1.237 345.751,2.286 335.251,10.946 
				333.381,12.489 335.251,14.032 345.751,22.692 347.023,23.741 			"/>
		</g>
		<g>
			<polygon class="st8" points="360.615,21.149 371.115,12.489 360.615,3.829 			"/>
			<polygon class="st9" points="360.615,21.149 371.115,12.489 360.615,3.829 360.615,1.237 361.888,2.286 372.388,10.946 
				374.258,12.489 372.388,14.032 361.888,22.692 360.615,23.741 			"/>
		</g>
	</g>
	<g>
		<rect x="344.61" y="37.5" class="st10" width="18.236" height="5"/>
		<g>
			<polygon class="st10" points="347.023,48.66 336.523,40 347.023,31.34 			"/>
			<polygon class="st9" points="347.023,48.66 336.523,40 347.023,31.34 347.023,28.748 345.751,29.797 335.251,38.457 333.381,40 
				335.251,41.543 345.751,50.203 347.023,51.252 			"/>
		</g>
		<g>
			<polygon class="st10" points="360.615,48.66 371.115,40 360.615,31.34 			"/>
			<polygon class="st9" points="360.615,48.66 371.115,40 360.615,31.34 360.615,28.748 361.888,29.797 372.388,38.457 374.258,40 
				372.388,41.543 361.888,50.203 360.615,51.252 			"/>
		</g>
	</g>
	<g>
		<rect x="139.816" y="37.5" class="st6" width="18.236" height="5"/>
		<g>
			<polygon class="st6" points="142.229,48.66 131.729,40 142.229,31.34 			"/>
			<polygon class="st9" points="142.229,48.66 131.729,40 142.229,31.34 142.229,28.748 140.957,29.797 130.457,38.457 128.587,40 
				130.457,41.543 140.957,50.203 142.229,51.252 			"/>
		</g>
		<g>
			<polygon class="st6" points="155.821,48.66 166.321,40 155.821,31.34 			"/>
			<polygon class="st9" points="155.821,48.66 166.321,40 155.821,31.34 155.821,28.748 157.094,29.797 167.594,38.457 169.464,40 
				167.594,41.543 157.094,50.203 155.821,51.252 			"/>
		</g>
	</g>
</g>
</svg>
