<?xml version="1.0" encoding="utf-8"?>
<!-- Generator: Adobe Illustrator 14.0.0, SVG Export Plug-In . SVG Version: 6.00 Build 43363)  -->
<!DOCTYPE svg PUBLIC "-//W3C//DTD SVG 1.1//EN" "http://www.w3.org/Graphics/SVG/1.1/DTD/svg11.dtd">
<svg version="1.1" id="Layer_1" xmlns="http://www.w3.org/2000/svg" xmlns:xlink="http://www.w3.org/1999/xlink" x="0px" y="0px"
	 width="540px" height="80px" viewBox="0 0 540 80" style="enable-background:new 0 0 540 80;" xml:space="preserve">
<style type="text/css">
<![CDATA[
	.st0{opacity:0.21;fill:#D7DCDD;}
	.st1{font-size:14.4;}
	.st2{fill:#808184;}
	.st3{fill:#B22A25;}
	.st4{font-family:'Slabo27px-Regular';}
	.st5{fill:#F29441;}
	.st6{fill:#F2B33D;}
	.st7{fill:#2976A6;}
	.st8{fill:#FFFFFF;}
	.st9{fill:#9CC8D9;}
]]>
</style>
<g>
	<rect x="0.421" y="2.029" class="st3" width="16" height="16"/>
	<g>
		<text transform="matrix(1 0 0 1 23.6206 14.8291)" class="st2 st4 st1">Heavy</text>
	</g>
	<g>
		<text transform="matrix(1 0 0 1 204.6221 15.8291)" class="st2 st4 st1">A Lot of Conflict</text>
	</g>
	<rect x="0.421" y="22.029" class="st5" width="16" height="16"/>
	<g>
		<text transform="matrix(1 0 0 1 23.6206 34.8291)" class="st2 st4 st1">Moderate</text>
	</g>
	<rect x="0.421" y="42.029" class="st6" width="16" height="16"/>
	<g>
		<text transform="matrix(1 0 0 1 23.6206 54.8291)" class="st2 st4 st1">Light</text>
	</g>
	<rect x="0.421" y="62.029" class="st9" width="16" height="16"/>
	<g>
		<text transform="matrix(1 0 0 1 23.6206 74.8291)" class="st2 st4 st1">Abstainer</text>
	</g>
	<g>
		<circle class="st3" cx="184.81" cy="11.029" r="12"/>
		<g>
			<path class="st8" d="M188.712,8.245c0.107,0.12,0.128,0.25,0.062,0.393l-4.821,10.331c-0.077,0.148-0.202,0.223-0.375,0.223
				c-0.024,0-0.065-0.006-0.125-0.018c-0.102-0.031-0.177-0.087-0.228-0.17c-0.051-0.083-0.064-0.173-0.04-0.268l1.759-7.215
				l-3.625,0.902c-0.023,0.005-0.06,0.008-0.107,0.008c-0.107,0-0.199-0.033-0.277-0.098c-0.107-0.089-0.146-0.205-0.116-0.348
				l1.794-7.367c0.024-0.083,0.072-0.151,0.143-0.205c0.072-0.054,0.155-0.081,0.25-0.081h2.929c0.113,0,0.208,0.037,0.285,0.112
				c0.078,0.074,0.117,0.162,0.117,0.263c0,0.048-0.015,0.102-0.045,0.161l-1.526,4.134l3.535-0.875
				c0.048-0.012,0.083-0.018,0.107-0.018C188.521,8.111,188.623,8.156,188.712,8.245z"/>
		</g>
	</g>
	<g>
		<text transform="matrix(1 0 0 1 204.6221 43.8291)" class="st2 st4 st1">Some Conflict</text>
	</g>
	<g>
		<circle class="st5" cx="184.81" cy="39.029" r="12"/>
		<g>
			<path class="st8" d="M188.712,36.245c0.107,0.12,0.128,0.25,0.062,0.393l-4.821,10.331c-0.077,0.148-0.202,0.223-0.375,0.223
				c-0.024,0-0.065-0.006-0.125-0.018c-0.102-0.031-0.177-0.087-0.228-0.17c-0.051-0.084-0.064-0.174-0.04-0.268l1.759-7.215
				l-3.625,0.902c-0.023,0.005-0.06,0.008-0.107,0.008c-0.107,0-0.199-0.033-0.277-0.098c-0.107-0.089-0.146-0.205-0.116-0.348
				l1.794-7.367c0.024-0.083,0.072-0.151,0.143-0.205c0.072-0.054,0.155-0.081,0.25-0.081h2.929c0.113,0,0.208,0.037,0.285,0.112
				c0.078,0.074,0.117,0.162,0.117,0.263c0,0.048-0.015,0.102-0.045,0.161l-1.526,4.134l3.535-0.875
				c0.048-0.012,0.083-0.018,0.107-0.018C188.521,36.111,188.623,36.156,188.712,36.245z"/>
		</g>
	</g>
	<g>
		<text transform="matrix(1 0 0 1 204.6221 71.8291)" class="st2 st4 st1">No Conflict</text>
	</g>
	<g>
		<circle class="st0" cx="184.81" cy="67.029" r="12"/>
		<g>
			<path class="st8" d="M188.712,64.244c0.107,0.12,0.128,0.25,0.062,0.394l-4.821,10.331c-0.077,0.148-0.202,0.223-0.375,0.223
				c-0.024,0-0.065-0.006-0.125-0.018c-0.102-0.031-0.177-0.087-0.228-0.17c-0.051-0.084-0.064-0.174-0.04-0.268l1.759-7.215
				l-3.625,0.902c-0.023,0.006-0.06,0.008-0.107,0.008c-0.107,0-0.199-0.032-0.277-0.098c-0.107-0.09-0.146-0.205-0.116-0.348
				l1.794-7.367c0.024-0.082,0.072-0.15,0.143-0.204c0.072-0.054,0.155-0.081,0.25-0.081h2.929c0.113,0,0.208,0.037,0.285,0.112
				c0.078,0.074,0.117,0.161,0.117,0.263c0,0.049-0.015,0.102-0.045,0.16l-1.526,4.135l3.535-0.875
				c0.048-0.012,0.083-0.018,0.107-0.018C188.521,64.111,188.623,64.156,188.712,64.244z"/>
		</g>
	</g>
	<g>
		<text transform="matrix(1 0 0 1 410.5146 15.8291)" class="st2 st4 st1">A Lot of Common</text>
	</g>
	<g>
		<text transform="matrix(1 0 0 1 410.5146 43.8291)" class="st2 st4 st1">Something in Common</text>
	</g>
	<g>
		<text transform="matrix(1 0 0 1 410.5146 71.8291)" class="st2 st4 st1">Nothing in Common</text>
	</g>
	<g>
		<circle class="st7" cx="390.703" cy="11.029" r="12"/>
		<g>
			<path class="st8" d="M385.093,10.381V7.559h11.211v2.822H385.093z M385.093,15.237v-2.833h11.211v2.833H385.093z"/>
		</g>
	</g>
	<g>
		<circle class="st9" cx="390.703" cy="39.029" r="12"/>
		<g>
			<path class="st8" d="M385.093,38.381v-2.822h11.211v2.822H385.093z M385.093,43.236v-2.832h11.211v2.832H385.093z"/>
		</g>
	</g>
	<g>
		<circle class="st0" cx="390.703" cy="67.029" r="12"/>
		<g>
			<path class="st8" d="M385.093,66.381v-2.822h11.211v2.822H385.093z M385.093,71.236v-2.832h11.211v2.832H385.093z"/>
		</g>
	</g>
	<g>
		<rect x="139.816" y="6.029" class="st3" width="18.236" height="10"/>
		<g>
			<polygon class="st3" points="141.816,19.689 131.316,11.029 141.816,2.369 			"/>
			<polygon class="st8" points="141.816,19.689 131.316,11.029 141.816,2.369 141.816,-0.223 140.544,0.826 130.044,9.486 
				128.174,11.029 130.044,12.572 140.544,21.232 141.816,22.281 			"/>
		</g>
		<g>
			<polygon class="st3" points="155.408,19.689 165.908,11.029 155.408,2.369 			"/>
			<polygon class="st8" points="155.408,19.689 165.908,11.029 155.408,2.369 155.408,-0.223 156.681,0.826 167.181,9.486 
				169.051,11.029 167.181,12.572 156.681,21.232 155.408,22.281 			"/>
		</g>
	</g>
	<g>
		<rect x="344.61" y="6.518" class="st7" width="18.236" height="10"/>
		<g>
			<polygon class="st7" points="347.023,20.178 336.523,11.518 347.023,2.858 			"/>
			<polygon class="st8" points="347.023,20.178 336.523,11.518 347.023,2.858 347.023,0.266 345.751,1.315 335.251,9.975 
				333.381,11.518 335.251,13.061 345.751,21.721 347.023,22.77 			"/>
		</g>
		<g>
			<polygon class="st7" points="360.615,20.178 371.115,11.518 360.615,2.858 			"/>
			<polygon class="st8" points="360.615,20.178 371.115,11.518 360.615,2.858 360.615,0.266 361.888,1.315 372.388,9.975 
				374.258,11.518 372.388,13.061 361.888,21.721 360.615,22.77 			"/>
		</g>
	</g>
	<g>
		<rect x="344.61" y="36.529" class="st9" width="18.236" height="5"/>
		<g>
			<polygon class="st9" points="347.023,47.689 336.523,39.029 347.023,30.369 			"/>
			<polygon class="st8" points="347.023,47.689 336.523,39.029 347.023,30.369 347.023,27.777 345.751,28.826 335.251,37.486 
				333.381,39.029 335.251,40.572 345.751,49.232 347.023,50.281 			"/>
		</g>
		<g>
			<polygon class="st9" points="360.615,47.689 371.115,39.029 360.615,30.369 			"/>
			<polygon class="st8" points="360.615,47.689 371.115,39.029 360.615,30.369 360.615,27.777 361.888,28.826 372.388,37.486 
				374.258,39.029 372.388,40.572 361.888,49.232 360.615,50.281 			"/>
		</g>
	</g>
	<g>
		<rect x="139.816" y="36.529" class="st5" width="18.236" height="5"/>
		<g>
			<polygon class="st5" points="142.229,47.689 131.729,39.029 142.229,30.369 			"/>
			<polygon class="st8" points="142.229,47.689 131.729,39.029 142.229,30.369 142.229,27.777 140.957,28.826 130.457,37.486 
				128.587,39.029 130.457,40.572 140.957,49.232 142.229,50.281 			"/>
		</g>
		<g>
			<polygon class="st5" points="155.821,47.689 166.321,39.029 155.821,30.369 			"/>
			<polygon class="st8" points="155.821,47.689 166.321,39.029 155.821,30.369 155.821,27.777 157.094,28.826 167.594,37.486 
				169.464,39.029 167.594,40.572 157.094,49.232 155.821,50.281 			"/>
		</g>
	</g>
</g>
</svg>
